PathFileType	4	(X/Y/Z)	C:/Users/beibeiliu/ov580/test_trc/User3\sequence.32_training_dense_right.trc
DataRate	CameraRate	NumFrames	NumMarkers	Units	OrigDataRate	OrigDataStartFrame	OrigNumFrames
120	120	18	19	mm	120	131	209
Frame#	Time	ThumbCMC			ThumbMCP			ThumbIP			ThumbTip			IndexMCP			IndexPIP			IndexTip			MiddleMCP			MiddlePIP			MiddleTip			RingMCP			RingPIP			RingTip			PinkyMCP			PinkyPIP			PinkyTip			BackHand1			BackHand2			BackHand3	
		X0	Y0	Z0	X1	Y1	Z1	X2	Y2	Z2	X3	Y3	Z3	X4	Y4	Z4	X5	Y5	Z5	X6	Y6	Z6	X7	Y7	Z7	X8	Y8	Z8	X9	Y9	Z9	X10	Y10	Z10	X11	Y11	Z11	X12	Y12	Z12	X13	Y13	Z13	X14	Y14	Z14	X15	Y15	Z15	X16	Y16	Z16	X17	Y17	Z17	X18	Y18	Z18	
130	1.08333	152.537	-25.6492	22.5918	137.112	-47.3236	-6.27386	141.601	-65.8207	-29.6952	159.856	-81.3906	-40.2668	168.209	-31.4864	-51.1743	153.902	-59.8557	-54.6245	157.364	-67.2019	-21.9471	191.383	-40.1683	-56.2195	177.377	-69.8462	-57.5945	170.014	-76.9699	-22.5634	212.944	-34.1823	-47.6592	212.971	-45.8993	-72.4278	209.398	-65.7946	-93.7722	229.525	-37.5161	-25.8707	243.691	-40.2797	-38.8104	257.424	-38.4379	-59.6231	210.976	-14.0035	2.72648	215.625	-13.6736	35.0494	182.963	-3.79678	14.2669	
131	1.09167	151.392	-25.1551	20.4845	133.756	-46.2059	1.59974	132.523	-69.5641	-24.8768	149.544	-86.2572	-34.8164	161.487	-34.6159	-48.4479	148.68	-65.1866	-52.9061	146.501	-69.4268	-19.0842	187.058	-44.5128	-50.9082	170.546	-76.852	-54.5122	165.7	-83.6899	-17.0885	208.975	-43.8919	-44.0364	207.862	-57.2389	-69.3827	202.664	-80.7055	-88.2893	227.009	-47.455	-22.8398	239.446	-52.7147	-41.888	252.717	-54.3249	-56.4776	209.394	-20.5168	4.54473	214.454	-14.565	29.7913	183.713	-5.47157	10.7647	
132	1.1	146.132	-21.5146	25.9335	128.777	-44.2728	4.27133	125.437	-68.0534	-20.8165	142.667	-86.5142	-28.221	162.752	-40.8327	-46.1372	145.915	-69.3781	-48.9644	140.604	-70.9516	-11.6337	179.993	-48.5398	-50.6184	164.144	-82.0275	-52.2265	156.386	-88.6198	-17.267	204.173	-52.0374	-43.7998	201.692	-65.3704	-65.0794	191.547	-88.8955	-83.1514	221.72	-56.5896	-18.522	233.306	-63.4872	-41.1692	242.263	-69.3264	-56.7846	211.624	-24.6005	4.53777	215.39	-19.5369	33.9699	183.36	-4.49227	14.519	
133	1.10833	145.353	-19.0015	26.8213	129.92	-44.0143	4.36149	122.816	-64.6917	-12.281	133.389	-86.8087	-22.8003	153.342	-43.2485	-46.3335	135.621	-70.0733	-43.2174	138.181	-74.0424	-8.43262	177.058	-58.6158	-48.1572	155.54	-81.629	-50.8749	147.446	-91.4235	-12.6907	199.871	-59.7378	-40.0618	196.588	-76.9026	-60.7673	186.532	-99.6242	-75.0074	219.561	-65.3314	-18.4855	229.286	-75.465	-37.8212	233.385	-81.3743	-53.2936	207.653	-31.2655	3.73801	211.067	-20.075	28.8125	181.647	-7.45714	12.0979	
134	1.11667	148.706	-18.264	27.5206	126.832	-39.5316	10.6058	111.669	-62.4543	-10.5128	122.996	-86.8293	-20.8528	151.423	-46.0955	-43.4721	126.56	-68.5591	-40.9819	128.572	-70.2595	-4.51837	167.291	-59.5799	-46.8741	146.202	-86.5949	-44.871	138.448	-90.7546	-3.6627	190.564	-63.7053	-39.6953	184.778	-81.8524	-57.6546	166.961	-106.231	-72.0713	209.264	-69.6387	-15.0222	217.003	-82.5895	-37.3794	223.768	-92.5847	-52.5609	204.937	-32.2941	5.26248	210.608	-24.1264	33.708	185.539	-10.0459	13.3124	
135	1.125	145.994	-14.729	25.5024	119.705	-34.2129	11.7461	105.687	-57.7151	-6.73639	114.895	-81.9538	-14.4385	143.199	-43.9639	-40.61	121.809	-69.998	-35.982	123.256	-69.2217	-1.89328	159.868	-65.7479	-44.313	136.242	-87.3407	-39.92	126.777	-89.4371	-3.44172	181.319	-70.9856	-39.9836	170.9	-89.8708	-56.1356	156.79	-109.612	-63.4638	201.109	-76.4301	-15.0367	209.247	-92.0913	-34.3436	214.032	-104.45	-49.8567	201.078	-40.4013	2.10084	210.688	-26.0433	30.7627	182.169	-13.512	8.53761	
136	1.13333	146.258	-10.533	27.988	121.362	-30.8762	12.8973	105.185	-51.9807	-1.2436	107.296	-76.8786	-9.75474	142.057	-47.0818	-38.2956	111.359	-63.4927	-32.8884	117.714	-61.6641	3.07127	152.948	-66.3573	-40.9229	126.203	-82.8419	-38.175	118.355	-84.7405	0.365988	175.252	-74.8968	-33.898	161.508	-92.2543	-49.4799	141.207	-112.807	-58.9464	193.453	-80.5061	-13.7252	196.896	-98.8599	-30.569	198.338	-111.3	-47.9907	198.844	-43.6647	1.36181	209.746	-33.0916	31.4244	183.832	-14.3108	7.26306	
137	1.14167	145.685	-6.69691	27.0477	117.559	-25.2619	13.1241	97.2531	-45.1167	-1.5276	99.3632	-69.6807	-3.89349	132.476	-46.2086	-38.5486	105.01	-58.2328	-27.9143	108.486	-53.0889	5.18843	144.68	-64.837	-38.8827	112.803	-79.5562	-31.146	108.055	-75.7025	5.09466	164.651	-77.7064	-34.7282	146.136	-93.4006	-49.1599	123.863	-109.946	-54.6292	183.562	-84.8035	-15.3556	184.76	-100.71	-28.5029	185.066	-120.711	-43.1308	196.98	-48.3383	3.52858	206.117	-32.0266	25.8828	180.561	-13.5057	5.45433	
138	1.15	146.678	-2.6655	25.6995	115.625	-16.2394	15.405	93.0462	-35.8892	2.62916	88.4509	-63.5498	-2.10133	127.976	-43.3131	-36.536	97.9799	-51.0882	-23.1427	105.055	-46.7341	7.67728	136.683	-62.4702	-38.3583	105.506	-73.1908	-26.8194	102.516	-71.3645	6.92354	156.41	-75.1992	-29.4264	136.963	-93.8547	-44.0227	111.756	-104.606	-49.7973	174.679	-85.3458	-12.8573	172.477	-101.108	-26.9071	171.042	-119.966	-41.897	190.606	-47.8826	0.500126	205.096	-38.3596	25.7993	181.848	-14.7485	8.15558	
139	1.15833	151.595	-0.974528	26.5398	119.063	-11.9093	15.1802	92.5149	-26.7134	5.33929	88.1502	-51.2396	3.05363	123.644	-34.2163	-35.7639	94.4729	-40.6368	-20.4694	101.629	-34.8439	7.88981	131.648	-57.3605	-36.0456	99.3681	-65.714	-23.5031	98.4243	-60.2087	11.6138	148.002	-70.8373	-27.6869	129.288	-87.1529	-39.6992	100.12	-99.8609	-44.328	166.197	-86.8113	-8.97636	161.52	-98.4561	-22.1848	156.689	-117.362	-38.7733	185.815	-48.6217	2.23743	203.63	-39.2488	26.4658	183.405	-16.1238	6.96464	
140	1.16667	155.165	2.5048	23.0056	119.496	0.776319	15.7092	95.6086	-13.8757	8.08559	85.3459	-39.625	3.15373	125.293	-28.2021	-33.7315	93.9089	-33.3092	-18.3562	103.619	-22.1484	10.4637	129.584	-51.3869	-33.3806	94.1072	-54.2419	-22.9214	95.1056	-48.4717	14.3576	142.241	-72.561	-26.4952	119.385	-80.1176	-39.1511	90.0492	-91.7793	-40.5549	157.5	-81.5895	-3.8172	150.986	-94.9876	-19.1155	141.838	-113.481	-38.6236	183.629	-53.15	8.03533	199.111	-43.0205	26.5294	183.8	-14.2336	5.1114	
141	1.175	161.254	10.3144	23.6825	125.034	5.07988	13.1119	96.6414	-3.34499	3.45001	86.5281	-27.309	4.38479	122.441	-22.0357	-35.5027	94.9168	-23.1115	-20.3907	106.723	-14.7188	9.23566	126.715	-48.7892	-31.7195	92.7536	-42.311	-24.3944	94.4584	-33.3799	12.573	135.091	-63.9236	-27.5697	111.037	-74.978	-37.0694	85.883	-76.6199	-39.9885	150.587	-80.4508	-1.17141	139.324	-93.9192	-19.7727	129.594	-108.362	-31.7584	179.571	-50.4352	4.09257	200.032	-46.9061	28.9092	186.453	-20.2817	5.48603	
142	1.18333	165.875	10.8795	17.2251	132.124	16.14	10.0178	102.901	6.22393	0.124022	89.3307	-14.0785	2.51303	126.582	-19.0173	-35.92	99.0832	-8.88081	-23.276	111.785	-0.534456	6.38561	123.569	-41.8488	-34.5977	93.9362	-35.1443	-25.707	102.18	-19.9812	13.4224	130.932	-61.5791	-28.1706	110.272	-63.9732	-38.3756	75.6786	-63.3975	-38.6303	143.399	-75.5025	-3.29532	132.722	-85.2643	-18.52	118.697	-102.691	-32.1904	178.242	-50.4317	7.96579	195.558	-51.9724	26.0357	190.02	-19.4408	1.4815	
143	1.19167	173.557	9.09912	14.9344	142.183	20.5029	7.11146	109.919	14.9429	-4.1424	92.7676	-7.33885	-3.80771	134.099	-12.4381	-38.3481	105.375	2.64413	-24.9424	119.939	5.57907	3.59564	127.614	-35.8946	-36.4144	96.5392	-23.9288	-29.2081	108.268	-8.03922	8.10699	134.127	-55.1759	-26.0359	103.03	-58.9426	-39.9394	77.4827	-50.9096	-41.2867	139.963	-69.5477	-1.56604	126.209	-80.5137	-17.29	111.131	-88.6768	-36.3587	176.024	-51.7157	1.96809	196.13	-48.7351	29.9965	190.628	-22.0729	2.39265	
144	1.2	184.749	10.9878	17.3622	151.184	25.0256	2.71775	122.549	19.7814	-8.27737	101.226	4.13724	-8.73939	139.436	-7.90107	-43.8964	113.173	7.17929	-30.2726	128.839	16.3125	-4.11826	135.257	-28.0658	-40.4884	104.167	-13.1713	-34.266	114.397	-0.0487014	0.250153	134.47	-50.999	-31.4951	111.102	-51.5554	-42.7428	79.3858	-40.1165	-45.8316	138.491	-66.5038	-5.38749	123.102	-74.1183	-25.3747	109.559	-78.7897	-37.2529	174.556	-50.649	2.80629	197.072	-50.0114	29.7289	196.747	-25.0088	-0.172021	
145	1.20833	192.148	10.1617	14.5966	162.079	23.8888	-3.26481	134.351	26.0847	-15.5111	112.661	9.49263	-17.8133	150.119	-7.28497	-47.4428	126.471	12.5614	-41.4509	140.143	19.5401	-9.99056	144.571	-27.0287	-45.9098	115.073	-7.35584	-44.9756	122.486	3.85121	-7.14535	142.341	-46.6372	-35.8227	116.655	-43.4947	-51.8353	88.9967	-30.1676	-52.5244	142.05	-59.7795	-10.0781	127.727	-67.3523	-27.2443	108.805	-75.2859	-41.4685	178.891	-53.0673	5.78981	196.574	-51.9171	28.9243	202.214	-28.488	2.22729	
146	1.21667	200.429	8.00137	9.59843	176.885	23.6055	-5.76586	149.087	26.1644	-24.6417	127.877	14.9855	-25.4069	165.454	-4.42505	-55.3347	144.269	16.1129	-51.8246	151.839	18.7193	-15.6868	155.687	-24.9839	-51.0648	128.526	-3.41262	-52.5396	135.784	7.52143	-12.9287	150.75	-44.5606	-38.4605	127.229	-37.9968	-58.6725	103.639	-21.5099	-62.601	144.784	-59.209	-17.6166	131.359	-63.4682	-35.7582	115.477	-64.8546	-53.3204	185.008	-51.9605	-0.852495	195.773	-53.1551	28.1919	209.064	-29.0786	4.26651	
147	1.225	210.472	6.59088	9.14137	188.532	22.8259	-9.74777	164.896	26.5615	-29.7082	142.521	14.9021	-34.1773	180.495	-10.7533	-55.8549	158.261	13.7712	-57.6136	164.777	19.5273	-23.3001	165.869	-28.3537	-57.4316	143.801	-0.894286	-60.6916	149.903	11.8528	-22.8847	162.195	-44.1385	-44.6806	142.247	-38.5236	-65.5467	119.588	-17.6393	-72.5583	153.95	-54.3734	-20.3925	139.396	-61.7425	-38.8207	124.85	-66.0242	-57.2814	190.123	-53.4556	1.35709	198.622	-53.6075	26.3264	214.656	-33.6621	6.12827	
